<?xml version="1.0" encoding="UTF-8"?><svg id="d" xmlns="http://www.w3.org/2000/svg" width="48" height="48" viewBox="0 0 48 48"><g id="e"><path d="M14.42,8.62h21.88v9.75c0,1.33-1.08,2.42-2.42,2.42H14.42c-1.33,0-2.42-1.08-2.42-2.42v-7.33c0-1.33,1.08-2.42,2.42-2.42Z" fill="#ffc"/><polygon points="14.64 39 13.14 38.84 12 37.81 12 12.56 12.29 12.56 14.64 13.98 14.64 39" fill="#816b42"/><path id="f" d="M14.64,39h0c-1.46,0-2.64-.98-2.64-2.2V11.5" fill="none" stroke="#000" stroke-miterlimit="10"/><polygon id="g" points="21.37 14 36 14 36 39 14.84 39 14.84 14 21.37 14" fill="#53603f" stroke="#000" stroke-miterlimit="10"/><path d="M15.93,14h-.93c-1.66,0-3-1.12-3-2.5h0c0-1.38,1.34-2.5,3-2.5h21" fill="none" stroke="#000" stroke-linecap="square" stroke-miterlimit="10"/><g id="h"><line x1="14.64" y1="11.5" x2="36.3" y2="11.5" fill="none" stroke="#000" stroke-miterlimit="10" stroke-width=".75"/><circle cx="14.64" cy="11.5" r=".38"/></g><polygon id="i" points="21.37 27.04 18.81 25.18 16.25 27.04 16.25 11.6 21.37 11.6 21.37 27.04" fill="#af3a17" stroke="#000" stroke-miterlimit="10" stroke-width=".5"/></g></svg>