<?xml version="1.0" encoding="UTF-8"?><svg id="d" xmlns="http://www.w3.org/2000/svg" width="48" height="48" viewBox="0 0 48 48"><line x1="14.84" y1="14" x2="14.84" y2="39" fill="none" stroke="#000" stroke-miterlimit="10" stroke-width=".75"/><g id="e"><path id="f" d="M14.64,39h0c-1.46,0-2.64-.98-2.64-2.2V11.5" fill="none" stroke="#000" stroke-miterlimit="10"/><polyline id="g" points="21.37 14 36 14 36 39 14.64 39" fill="none" stroke="#000" stroke-miterlimit="10"/><path d="M15.93,14h-.93c-1.66,0-3-1.12-3-2.5h0c0-1.38,1.34-2.5,3-2.5h21" fill="none" stroke="#000" stroke-linecap="square" stroke-miterlimit="10"/><g id="h"><line x1="14.64" y1="11.5" x2="35.88" y2="11.5" fill="none" stroke="#000" stroke-miterlimit="10" stroke-width=".75"/><circle cx="14.64" cy="11.5" r=".38"/></g><polygon id="i" points="21.37 27.04 18.81 25.18 16.25 27.04 16.25 11.6 21.37 11.6 21.37 27.04" fill="none" stroke="#000" stroke-miterlimit="10" stroke-width=".5"/></g></svg>